<svg width="290" height="32" viewBox="0 0 290 32" fill="none" xmlns="http://www.w3.org/2000/svg">
<g clip-path="url(#clip0_383_21)">
<path d="M9.27 28.36C8.15 28.36 7.14 28.17 6.24 27.79C5.36 27.41 4.6 26.87 3.96 26.17C3.34 25.45 2.86 24.6 2.52 23.62C2.18 22.62 2.01 21.51 2.01 20.29C2.01 19.05 2.18 17.93 2.52 16.93C2.88 15.93 3.37 15.08 3.99 14.38C4.61 13.66 5.35 13.11 6.21 12.73C7.09 12.35 8.06 12.16 9.12 12.16C10.16 12.16 11.1 12.35 11.94 12.73C12.8 13.11 13.53 13.64 14.13 14.32C14.73 14.98 15.19 15.77 15.51 16.69C15.83 17.61 15.99 18.62 15.99 19.72V20.86H4.53V21.58C4.53 22.26 4.64 22.89 4.86 23.47C5.08 24.05 5.39 24.55 5.79 24.97C6.21 25.39 6.71 25.72 7.29 25.96C7.89 26.18 8.55 26.29 9.27 26.29C10.31 26.29 11.21 26.05 11.97 25.57C12.73 25.09 13.31 24.43 13.71 23.59L15.48 24.79C15.02 25.83 14.25 26.69 13.17 27.37C12.11 28.03 10.81 28.36 9.27 28.36ZM9.12 14.14C8.46 14.14 7.85 14.26 7.29 14.5C6.73 14.74 6.24 15.07 5.82 15.49C5.42 15.91 5.1 16.41 4.86 16.99C4.64 17.55 4.53 18.17 4.53 18.85V19.06H13.41V18.73C13.41 18.05 13.3 17.43 13.08 16.87C12.88 16.31 12.59 15.83 12.21 15.43C11.85 15.01 11.4 14.69 10.86 14.47C10.34 14.25 9.76 14.14 9.12 14.14ZM18.8883 25.96H24.2883V7.84H18.8883V5.8H26.6883V25.96H32.0883V28H18.8883V25.96ZM42.1566 28.36C40.5366 28.36 39.1366 28.09 37.9566 27.55C36.7966 26.99 35.8066 26.25 34.9866 25.33L36.6066 23.92C37.3466 24.7 38.1566 25.3 39.0366 25.72C39.9166 26.14 40.9766 26.35 42.2166 26.35C43.4166 26.35 44.3966 26.14 45.1566 25.72C45.9366 25.28 46.3266 24.6 46.3266 23.68C46.3266 23.28 46.2466 22.95 46.0866 22.69C45.9466 22.41 45.7466 22.19 45.4866 22.03C45.2266 21.87 44.9366 21.75 44.6166 21.67C44.2966 21.57 43.9566 21.49 43.5966 21.43L41.1666 21.07C40.6266 20.99 40.0366 20.88 39.3966 20.74C38.7766 20.6 38.2066 20.38 37.6866 20.08C37.1666 19.76 36.7266 19.34 36.3666 18.82C36.0266 18.3 35.8566 17.62 35.8566 16.78C35.8566 16 36.0066 15.33 36.3066 14.77C36.6266 14.19 37.0666 13.71 37.6266 13.33C38.1866 12.93 38.8466 12.64 39.6066 12.46C40.3666 12.26 41.1966 12.16 42.0966 12.16C43.4966 12.16 44.7066 12.38 45.7266 12.82C46.7666 13.26 47.6566 13.87 48.3966 14.65L46.8366 16.12C46.6566 15.9 46.4266 15.68 46.1466 15.46C45.8866 15.22 45.5566 15.01 45.1566 14.83C44.7766 14.63 44.3266 14.47 43.8066 14.35C43.2866 14.23 42.6866 14.17 42.0066 14.17C40.7866 14.17 39.8466 14.38 39.1866 14.8C38.5466 15.22 38.2266 15.83 38.2266 16.63C38.2266 17.03 38.2966 17.37 38.4366 17.65C38.5966 17.91 38.8066 18.12 39.0666 18.28C39.3266 18.44 39.6166 18.57 39.9366 18.67C40.2766 18.75 40.6166 18.82 40.9566 18.88L43.3866 19.24C43.9466 19.32 44.5366 19.43 45.1566 19.57C45.7766 19.71 46.3466 19.94 46.8666 20.26C47.3866 20.56 47.8166 20.97 48.1566 21.49C48.5166 22.01 48.6966 22.69 48.6966 23.53C48.6966 25.07 48.0966 26.26 46.8966 27.1C45.7166 27.94 44.1366 28.36 42.1566 28.36ZM58.7348 28.36C57.6148 28.36 56.6048 28.17 55.7048 27.79C54.8248 27.41 54.0648 26.87 53.4248 26.17C52.8048 25.45 52.3248 24.6 51.9848 23.62C51.6448 22.62 51.4748 21.51 51.4748 20.29C51.4748 19.05 51.6448 17.93 51.9848 16.93C52.3448 15.93 52.8348 15.08 53.4548 14.38C54.0748 13.66 54.8148 13.11 55.6748 12.73C56.5548 12.35 57.5248 12.16 58.5848 12.16C59.6248 12.16 60.5648 12.35 61.4048 12.73C62.2648 13.11 62.9948 13.64 63.5948 14.32C64.1948 14.98 64.6548 15.77 64.9748 16.69C65.2948 17.61 65.4548 18.62 65.4548 19.72V20.86H53.9948V21.58C53.9948 22.26 54.1048 22.89 54.3248 23.47C54.5448 24.05 54.8548 24.55 55.2548 24.97C55.6748 25.39 56.1748 25.72 56.7548 25.96C57.3548 26.18 58.0148 26.29 58.7348 26.29C59.7748 26.29 60.6748 26.05 61.4348 25.57C62.1948 25.09 62.7748 24.43 63.1748 23.59L64.9448 24.79C64.4848 25.83 63.7148 26.69 62.6348 27.37C61.5748 28.03 60.2748 28.36 58.7348 28.36ZM58.5848 14.14C57.9248 14.14 57.3148 14.26 56.7548 14.5C56.1948 14.74 55.7048 15.07 55.2848 15.49C54.8848 15.91 54.5648 16.41 54.3248 16.99C54.1048 17.55 53.9948 18.17 53.9948 18.85V19.06H62.8748V18.73C62.8748 18.05 62.7648 17.43 62.5448 16.87C62.3448 16.31 62.0548 15.83 61.6748 15.43C61.3148 15.01 60.8648 14.69 60.3248 14.47C59.8048 14.25 59.2248 14.14 58.5848 14.14ZM77.2031 10.75V28H72.7031V10.75H66.6731V7.06H83.2331V10.75H77.2031ZM84.3914 5.8H88.8314V15.34H89.0114C89.1914 14.9 89.4114 14.49 89.6714 14.11C89.9314 13.73 90.2414 13.4 90.6014 13.12C90.9814 12.82 91.4114 12.59 91.8914 12.43C92.3914 12.25 92.9514 12.16 93.5714 12.16C94.3114 12.16 94.9914 12.29 95.6114 12.55C96.2314 12.79 96.7614 13.16 97.2014 13.66C97.6414 14.16 97.9814 14.77 98.2214 15.49C98.4814 16.21 98.6114 17.04 98.6114 17.98V28H94.1714V18.58C94.1714 16.58 93.3014 15.58 91.5614 15.58C91.2214 15.58 90.8814 15.63 90.5414 15.73C90.2214 15.81 89.9314 15.95 89.6714 16.15C89.4114 16.33 89.2014 16.56 89.0414 16.84C88.9014 17.12 88.8314 17.45 88.8314 17.83V28H84.3914V5.8ZM101.15 24.55H104.72V15.97H101.15V12.52H109.16V16.9H109.37C109.51 16.34 109.7 15.8 109.94 15.28C110.2 14.74 110.52 14.27 110.9 13.87C111.3 13.45 111.78 13.12 112.34 12.88C112.9 12.64 113.56 12.52 114.32 12.52H115.79V16.6H112.49C111.39 16.6 110.56 16.93 110 17.59C109.44 18.23 109.16 19.02 109.16 19.96V24.55H114.26V28H101.15V24.55ZM124.418 28.36C123.218 28.36 122.138 28.18 121.178 27.82C120.218 27.44 119.398 26.9 118.718 26.2C118.058 25.5 117.548 24.65 117.188 23.65C116.828 22.65 116.648 21.52 116.648 20.26C116.648 19 116.828 17.87 117.188 16.87C117.548 15.87 118.058 15.02 118.718 14.32C119.398 13.62 120.218 13.09 121.178 12.73C122.138 12.35 123.218 12.16 124.418 12.16C125.618 12.16 126.698 12.35 127.658 12.73C128.618 13.09 129.428 13.62 130.088 14.32C130.768 15.02 131.288 15.87 131.648 16.87C132.008 17.87 132.188 19 132.188 20.26C132.188 21.52 132.008 22.65 131.648 23.65C131.288 24.65 130.768 25.5 130.088 26.2C129.428 26.9 128.618 27.44 127.658 27.82C126.698 28.18 125.618 28.36 124.418 28.36ZM124.418 25.06C125.418 25.06 126.198 24.75 126.758 24.13C127.318 23.51 127.598 22.63 127.598 21.49V19.03C127.598 17.89 127.318 17.01 126.758 16.39C126.198 15.77 125.418 15.46 124.418 15.46C123.418 15.46 122.638 15.77 122.078 16.39C121.518 17.01 121.238 17.89 121.238 19.03V21.49C121.238 22.63 121.518 23.51 122.078 24.13C122.638 24.75 123.418 25.06 124.418 25.06ZM132.116 12.52H135.806L136.916 25.06H137.216L139.046 12.52H142.946L144.746 25.06H145.046L146.186 12.52H149.696L147.866 28H142.586L141.056 17.32H140.756L139.226 28H133.946L132.116 12.52Z" fill="black"/>
<path d="M178.34 2.89H182.36V30.67H178.34V2.89ZM170.15 5.77H174.11C174.11 14.26 171.23 21.22 161.36 25.99L159.29 22.81C167.27 18.97 170.15 13.93 170.15 6.49V5.77ZM160.76 5.77H172.04V8.92H160.76V5.77ZM195.828 3.04H199.188V3.55C199.188 8.2 195.018 11.86 187.848 12.64L186.528 9.64C192.798 9.01 195.828 6.25 195.828 3.55V3.04ZM196.518 3.04H199.908V3.55C199.908 6.25 202.938 9.01 209.178 9.64L207.858 12.64C200.688 11.86 196.518 8.2 196.518 3.55V3.04ZM195.828 16.21H199.818V20.08H195.828V16.21ZM185.298 13.78H210.408V16.9H185.298V13.78ZM188.178 18.7H207.378V25.9H192.138V28.3H188.208V23.14H203.448V21.67H188.178V18.7ZM188.208 27.49H208.098V30.49H188.208V27.49ZM214.605 3.37H218.535V5.2H229.365V3.37H233.325V12.67H214.605V3.37ZM218.535 8.11V9.73H229.365V8.11H218.535ZM211.395 14.17H236.505V17.29H211.395V14.17ZM214.275 18.88H233.475V25.93H218.235V28.45H214.305V23.2H229.545V21.79H214.275V18.88ZM214.305 27.52H234.195V30.49H214.305V27.52ZM237.523 24.37H262.663V27.61H237.523V24.37ZM248.053 19.12H252.043V25.69H248.053V19.12ZM240.343 4.69H259.843V13.93H244.363V18.61H240.403V10.81H255.883V7.84H240.343V4.69ZM240.403 17.02H260.473V20.23H240.403V17.02ZM266.171 5.44H283.781V8.59H266.171V5.44ZM263.621 23.8H288.731V27.04H263.621V23.8ZM281.681 5.44H285.641V8.74C285.641 12.64 285.641 16.42 284.651 22.12L280.661 21.79C281.681 16.45 281.681 12.49 281.681 8.74V5.44Z" fill="black"/>
</g>
<defs>
<clipPath id="clip0_383_21">
<rect width="290" height="32" fill="white"/>
</clipPath>
</defs>
</svg>
